<?xml version="1.0" encoding="UTF-8"?>
<svg width="483px" height="291px" viewBox="0 0 483 291" version="1.1" xmlns="http://www.w3.org/2000/svg" xmlns:xlink="http://www.w3.org/1999/xlink">
    <title>1D8BD210-8514-4C13-9F16-13FDC9F195E6</title>
    <g id="Homepage---Desktop" stroke="none" stroke-width="1" fill="none" fill-rule="evenodd">
        <g id="resources-page" transform="translate(-807.000000, -215.000000)">
            <g id="Group-12" transform="translate(100.000000, 165.000000)">
                <g id="back-to-work" transform="translate(707.000000, 50.000000)">
                    <path d="M479.329231,202.76827 C479.198654,203.519764 479.068077,204.25247 478.9375,204.985176 C469.554615,258.115778 442.096154,281.468443 442.096154,281.468443 L30.1259615,281.468443 C30.1259615,281.468443 4.92461538,234.819474 16.005,194.107306 C16.1728846,193.487323 16.3407692,192.867341 16.5273077,192.266146 C23.8209615,168.030476 44.3961538,146.199585 91.4038462,137.989517 C101.514231,136.223507 110.8225,134.532646 119.403269,132.916935 C120.615769,132.672699 121.790962,132.447251 122.966154,132.221803 C152.793654,126.472877 173.592692,121.343932 189.411154,115.482282 L189.429808,115.482282 C190.586346,115.050173 191.724231,114.599277 192.843462,114.167168 C224.984038,101.429351 235.971154,84.8777029 264.772692,51.2483618 C267.011154,48.6369214 269.398846,46.0818429 271.935769,43.5643392 C272.495385,43.0007189 273.055,42.455886 273.633269,41.9298405 C289.171923,27.0502661 309.803077,14.218512 332.038462,6.79751212 C332.635385,6.59085136 333.232308,6.38419061 333.829231,6.19631719 C362.313654,-2.89675603 393.260385,-3.02826742 419.431731,12.8846107 C420.420385,13.4858056 421.409038,14.1057879 422.397692,14.7633449 C443.122115,28.5344661 460.582115,52.8640732 471.009615,91.3969103 C483.470385,137.482259 483.992692,174.28666 479.329231,202.76827" id="Fill-60" fill="#ECF9FE"></path>
                    <path d="M76.7307308,262.896519 C76.7307308,262.896519 87.4566923,238.879693 62.7403462,220.225846 C38.024,201.572 32.4278462,188.047962 32.4278462,188.047962 C32.4278462,188.047962 24.0765192,231.847193 39.1898654,252.636904 L39.1898654,282.716231 L75.7756538,282.716231 L76.7307308,262.896519" id="Fill-66" fill="#36B9E3"></path>
                    <path d="M54.6035385,281.084019 C54.6035385,281.084019 53.3929038,264.295558 70.1086154,253.056616 C86.8243269,241.817673 86.5818269,230.485462 86.5818269,230.485462 C86.5818269,230.485462 99.4231346,262.637231 83.1924231,281.084019 L54.6035385,281.084019" id="Fill-67" fill="#79D8F7"></path>
                    <path d="M58.3175192,281.084019 C58.3175192,281.084019 60.8973462,258.466231 39.7886538,246.341231 C18.6780962,234.216231 14.2478077,218.593635 14.2478077,218.593635 C14.2478077,218.593635 2.58915385,257.999885 21.7093462,281.084019 L58.3175192,281.084019" id="Fill-68" fill="#C5EEFB"></path>
                    <path d="M189.112692,235.848443 C182.608096,246.697519 174.059038,257.037346 163.724808,266.933212 L163.724808,278.211327 L188.942942,278.211327 C188.942942,278.211327 196.91,273.920943 212.877692,261.721327 C212.877692,261.721327 218.113827,226.833039 189.112692,235.848443" id="Fill-69" fill="#E7EBED"></path>
                    <path d="M347.670385,257.300366 C347.670385,257.300366 346.495192,279.684981 340.899038,281.084019 C335.302885,282.483058 312.373577,261.721327 312.373577,261.721327 L309.765769,251.816135 L326.753827,239.424385 C326.753827,239.424385 346.980192,245.641712 347.670385,257.300366" id="Fill-70" fill="#36B9E3"></path>
                    <path d="M332.747308,278.211327 L296.622269,278.211327 L309.1875,254.502289 L331.661654,277.120077 L332.747308,278.211327 M227.067673,277.476366 C228.101096,273.435943 228.597288,267.757712 228.795019,261.909731 C228.841654,260.497635 228.873365,259.076212 228.888288,257.664116 C229.015135,246.671404 228.285769,236.314789 228.285769,236.314789 C228.267115,236.538635 228.227942,236.743827 228.1925,236.967673 C227.446346,229.692673 225.245192,210.945558 221.215962,195.668058 C221.439808,196.936519 224.592308,214.694981 219.649038,231.03575 C217.205385,239.150173 212.989615,244.690366 209.2775,248.271904 C203.789538,236.924769 194.235038,235.773827 190.586346,235.773827 C189.657385,235.773827 189.112692,235.848443 189.112692,235.848443 C187.695,228.386904 195.641538,226.521519 195.641538,226.521519 C195.641538,226.521519 195.884038,225.103827 196.350385,222.671366 C196.466038,222.072577 196.59475,221.412231 196.736519,220.695923 C199.661442,205.901558 208.216096,167.424269 219.649038,158.434981 C233.881923,147.242673 257.087308,141.646519 257.087308,141.646519 L280.982885,140.023635 C280.982885,140.023635 327.841346,149.350558 337.168269,165.430173 C340.117442,170.513346 341.971635,180.073443 343.128173,190.769558 C343.204654,191.470943 343.277404,192.177923 343.346423,192.888635 C345.58675,215.610885 344.872308,242.377289 344.872308,242.377289 C352.333846,248.439789 347.670385,257.300366 347.670385,257.300366 C345.482288,253.120039 338.688558,251.881423 331.406096,251.881423 C322.868231,251.881423 313.656962,253.584519 310.405596,254.244866 C309.624,254.403423 309.1875,254.502289 309.1875,254.502289 C309.1875,254.502289 313.151442,219.992673 300.326923,189.913346 C300.326923,189.913346 302.425481,235.615269 283.771635,248.439789 C266.184788,260.529346 236.99525,258.941904 227.067673,277.476366" id="Fill-71" fill="#40C8F4"></path>
                    <polygon id="Fill-74" fill="#FAB09C" points="225.478365 281.084019 294.721442 281.084019 294.721442 280.468443 225.478365 280.468443"></polygon>
                    <path d="M294.721442,280.468443 L272.495385,280.468443 C272.756538,279.724154 273.027019,278.970539 273.306827,278.211327 L296.622269,278.211327 L295.430288,280.460981 L294.721442,280.468443 M270.536731,280.468443 L237.034423,280.468443 C236.847885,279.718558 236.653885,278.966808 236.450558,278.211327 L271.335115,278.211327 C271.079558,278.914577 270.831462,279.612231 270.592692,280.300558 L270.536731,280.468443 M235.113077,280.468443 L225.704077,280.468443 C226.107,279.416366 226.562154,278.42025 227.067673,277.476366 C227.002385,277.728193 226.937096,277.972558 226.868077,278.211327 L234.519885,278.211327 C234.725077,278.966808 234.922808,279.718558 235.113077,280.468443" id="Fill-77" fill="#EDA698"></path>
                    <path d="M272.495385,280.468443 L270.536731,280.468443 L270.592692,280.300558 C270.831462,279.612231 271.079558,278.914577 271.335115,278.211327 L273.306827,278.211327 C273.027019,278.970539 272.756538,279.724154 272.495385,280.468443" id="Fill-78" fill="#FAB09C"></path>
                    <path d="M237.034423,280.468443 L235.113077,280.468443 C234.922808,279.718558 234.725077,278.966808 234.519885,278.211327 L236.450558,278.211327 C236.653885,278.966808 236.847885,279.718558 237.034423,280.468443" id="Fill-79" fill="#FAB09C"></path>
                    <path d="M296.622269,278.211327 L226.868077,278.211327 C226.937096,277.972558 227.002385,277.728193 227.067673,277.476366 C236.99525,258.941904 266.184788,260.529346 283.771635,248.439789 C302.425481,235.615269 300.326923,189.913346 300.326923,189.913346 C313.151442,219.992673 309.1875,254.502289 309.1875,254.502289 L296.622269,278.211327" id="Fill-80" fill="#36B9E3"></path>
                    <path d="M212.877692,261.721327 L212.877692,261.721327 C212.243462,256.125173 210.956346,251.722866 209.2775,248.271904 C212.989615,244.690366 217.205385,239.150173 219.649038,231.03575 C224.592308,214.694981 221.439808,196.936519 221.215962,195.668058 C225.245192,210.945558 227.446346,229.692673 228.1925,236.967673 C227.515365,242.173962 225.933519,246.307654 224.364731,249.314654 C224.008442,249.995519 223.654019,250.616693 223.312654,251.180039 C221.699096,253.832616 220.339231,255.192481 220.339231,255.192481 C219.891538,261.273635 212.877692,261.721327 212.877692,261.721327" id="Fill-83" fill="#36B9E3"></path>
                    <path d="M278.875,266.394116 C278.875,266.394116 305.223558,247.973443 327.608173,255.434981 C349.992788,262.896519 348.127404,278.285943 340.899038,281.084019 L285.092327,281.084019 L278.875,266.394116" id="Fill-86" fill="#E7EBED"></path>
                    <path d="M285.9075,140.863058 C285.9075,140.863058 280.423269,171.641904 264.101154,171.809789 C249.849615,171.940366 253.151346,153.249212 254.214615,148.492481 C254.363846,147.783635 254.475769,147.391904 254.475769,147.391904 L248.5625,124.858058 L279.956923,108.237481 L280.591154,111.688443 L280.591154,111.744404 L285.9075,140.863058" id="Fill-87" fill="#FFFFFF"></path>
                    <path d="M254.214615,148.492481 C254.363846,147.783635 254.475769,147.391904 254.475769,147.391904 L248.5625,124.858058 L279.956923,108.237481 L280.591154,111.688443 L280.591154,111.744404 C284.713654,148.492481 254.792885,148.492481 254.214615,148.492481" id="Fill-88" fill="#E7EBED"></path>
                    <path d="M284.122327,97.227981 C284.122327,97.227981 288.233635,89.3691156 289.252135,78.9229618 C290.184827,69.3628656 287.502404,67.1486541 283.538462,67.1486541 C283.538462,67.1486541 281.439904,56.3051733 276.427615,52.5744041 C271.413462,48.8436348 251.01175,54.3222694 243.199519,58.9875964 C235.389154,63.6510579 229.675481,50.8041541 226.062231,51.3395194 C222.447115,51.8748848 221.747596,61.7838079 224.545673,66.2159618 C224.545673,66.2159618 218.016827,62.6008464 216.968481,58.8700771 C215.918269,55.1393079 208.456731,61.9013271 211.139154,75.7760579 C213.819712,89.6489233 219.999731,91.3986541 219.999731,91.3986541 C219.999731,91.3986541 221.165596,106.088558 233.173077,107.720769 C245.182423,109.352981 276.893962,106.554904 276.893962,106.554904 L284.122327,97.227981" id="Fill-89" fill="#093243"></path>
                    <path d="M228.276442,91.9806541 C228.276442,91.9806541 234.105769,131.85325 248.795673,136.983058 C263.485577,142.112866 275.765404,126.430577 277.630788,122.233462 C279.496173,118.036346 280.2815,109.239193 280.2815,109.239193 C280.2815,109.239193 285.288192,110.401327 285.870192,101.54075 C286.454058,92.6801733 278.759346,87.4347118 276.893962,102.706616 C276.893962,102.706616 269.702904,98.7426733 271.879808,85.2186348 C271.879808,85.2186348 263.640404,92.9916925 252.138442,92.9916925 C240.634615,92.9916925 250.582712,85.2186348 250.582712,85.2186348 C250.582712,85.2186348 242.345173,92.8350002 228.276442,91.9806541" id="Fill-92" fill="#FFFFFF"></path>
                    <line x1="265.817308" y1="115.721154" x2="277.009615" y2="98.9326923" id="Line" stroke="#C5EEFB" stroke-width="1.86538462" stroke-linecap="round"></line>
                    <path d="M269.548077,132.509615 C272.775073,128.669351 275.039914,125.446531 276.342602,122.841156 C277.64529,120.235781 279.111217,115.997062 280.740385,110.125" id="Line" stroke="#C5EEFB" stroke-width="1.86538462" stroke-linecap="round"></path>
                    <path d="M268.32202,114.962287 C268.163474,113.830543 267.221523,112.990092 266.107037,112.990092 L264.579865,112.990092 C262.483791,112.990092 257.308005,114.370151 255.699228,112.990092 L251.67627,110.522226 C250.708672,109.691325 248.236509,108.871592 246.874877,108.871592 C245.513245,108.871592 243.808066,110.779738 242.838136,111.610638 L240.93821,114.21289 C239.329433,115.590561 238.750231,116.080662 236.654158,116.080662 L234.254803,116.078275 C233.51877,116.078275 236.203794,123.09972 238.979493,128.364981 C240.397907,131.055591 242.181206,133.387132 242.838136,133.88294 C252.947135,141.512558 259.172646,140.756969 270.137977,133.88294 C271.688465,132.911169 272.558137,131.103722 272.301666,129.26046 L268.32202,114.962287 Z" id="Path" fill="#40C8F4" fill-rule="nonzero"></path>
                    <polygon id="Fill-93" fill="#C5EEFB" points="224.3125 281.084019 320.068288 281.084019 320.068288 275.954212 224.3125 275.954212"></polygon>
                    <polygon id="Fill-94" fill="#79D8F7" points="290.533654 281.084019 320.068288 281.084019 320.068288 275.954212 290.533654 275.954212"></polygon>
                    <path d="M303.902865,276.109039 C303.902865,276.109039 295.434019,263.474789 282.73075,263.67625 C273.118423,263.829212 272.762135,269.891712 272.762135,269.891712 C272.762135,269.891712 266.445942,269.139962 266.283654,276.109039 L303.902865,276.109039" id="Fill-95" fill="#FFFFFF"></path>
                    <path d="M184.827904,275.333039 C184.827904,275.333039 185.29425,268.337846 182.186519,267.405154 C179.076923,266.472462 176.745192,269.113846 176.745192,269.113846 C176.745192,269.113846 174.413462,258.854231 165.707712,258.544577 C157.003827,258.233058 141.302885,267.093635 150.941327,275.333039 L184.827904,275.333039" id="Fill-96" fill="#FFFFFF"></path>
                    <path d="M207.206923,278.211327 C207.206923,279.796904 205.919808,281.084019 204.334231,281.084019 L151.954231,281.084019 C150.368654,281.084019 149.081538,279.796904 149.081538,278.211327 C149.081538,276.62575 150.368654,275.338635 151.954231,275.338635 L204.334231,275.338635 C205.919808,275.338635 207.206923,276.62575 207.206923,278.211327" id="Fill-97" fill="#C5EEFB"></path>
                    <path d="M191.668269,278.211327 C191.668269,279.796904 190.381154,281.084019 188.795577,281.084019 L151.954231,281.084019 C150.368654,281.084019 149.081538,279.796904 149.081538,278.211327 C149.081538,276.62575 150.368654,275.338635 151.954231,275.338635 L188.795577,275.338635 C190.381154,275.338635 191.668269,276.62575 191.668269,278.211327" id="Fill-98" fill="#79D8F7"></path>
                    <path d="M178.144231,270.70875 L168.856481,240.366404 C168.446096,239.015866 167.037731,238.234269 165.672269,238.599885 C164.174365,238.999077 163.346135,240.607039 163.892692,242.060173 L174.997327,271.523923 C174.997327,271.523923 176.862712,272.574135 178.144231,270.70875" id="Fill-99" fill="#235069"></path>
                    <path d="M112.73825,195.212904 C113.749288,201.333231 111.548135,206.795077 107.821096,207.410654 C104.094058,208.026231 100.251365,203.562366 99.2403269,197.443904 C98.2292885,191.321712 100.432308,185.861731 104.159346,185.246154 C107.886385,184.628712 111.727212,189.092577 112.73825,195.212904" id="Fill-100" fill="#FFFFFF"></path>
                    <path d="M112.73825,195.212904 L111.81675,195.364 C111.975308,196.320943 112.049923,197.261096 112.049923,198.160212 C112.051788,200.449039 111.559327,202.491635 110.751615,203.957827 C109.936442,205.435212 108.867577,206.293289 107.668135,206.491019 C107.489058,206.520866 107.308115,206.533923 107.127173,206.533923 C105.776635,206.54325 104.263808,205.679577 102.958038,204.028712 C101.657865,202.389039 100.609519,200.02 100.159962,197.290943 C100.003269,196.334 99.9267885,195.395712 99.9267885,194.496596 C99.9249231,192.207769 100.41925,190.165173 101.226962,188.697116 C102.042135,187.219731 103.112865,186.363519 104.310442,186.165789 C104.491385,186.135943 104.670462,186.121019 104.851404,186.121019 C106.201942,186.111693 107.714769,186.975366 109.018673,188.626231 C110.318846,190.265904 111.369058,192.636808 111.81675,195.364 L112.73825,195.212904 L113.657885,195.059943 C113.157962,192.047346 112.012615,189.405962 110.483,187.469693 C108.957115,185.54275 107.000327,184.264962 104.851404,184.255635 C104.571596,184.255635 104.288058,184.278019 104.006385,184.324654 C102.090635,184.641769 100.577808,185.990443 99.5910192,187.799866 C98.5967692,189.620481 98.0632692,191.94475 98.0614038,194.496596 C98.0614038,195.500173 98.1453462,196.539193 98.3206923,197.595 C98.8206154,200.607596 99.9659615,203.248981 101.495577,205.187116 C103.021462,207.112193 104.980115,208.391846 107.127173,208.399308 C107.408846,208.399308 107.690519,208.376923 107.972192,208.330289 C109.887942,208.013173 111.400769,206.6645 112.387558,204.855077 C113.381808,203.036327 113.913442,200.712058 113.915308,198.160212 C113.915308,197.156635 113.831365,196.117616 113.657885,195.059943 L112.73825,195.212904" id="Fill-101" fill="#F230DB"></path>
                    <path d="M169.414231,249.148635 L69.9705769,249.148635 C65.6055769,249.148635 61.7069231,246.462481 60.0840385,242.414596 C48.4440385,213.351904 39.8446154,185.091327 36.3563462,158.173827 C35.5355769,151.794212 40.4975,146.16075 46.9144231,146.16075 L147.719808,146.16075 C152.996981,146.16075 157.438462,150.022096 158.221923,155.226519 C162.008654,180.166712 169.414231,206.897673 179.45,234.971712 C181.912308,241.873635 176.763846,249.148635 169.414231,249.148635" id="Fill-102" fill="#79D8F7"></path>
                    <path d="M165.385,249.148635 L69.9705769,249.148635 C65.6055769,249.148635 61.7069231,246.462481 60.0840385,242.414596 C48.4440385,213.351904 39.8446154,185.091327 36.3563462,158.173827 C35.5355769,151.794212 40.4975,146.16075 46.9144231,146.16075 L143.671923,146.16075 C148.950962,146.16075 153.390577,150.022096 154.192692,155.226519 C157.960769,180.166712 165.366346,206.897673 175.402115,234.971712 C177.883077,241.873635 172.715962,249.148635 165.385,249.148635" id="Fill-103" fill="#9FE3F9"></path>
                    <path d="M160.484635,281.084019 L122.283423,281.084019 C116.741365,281.084019 111.799962,277.558443 109.988673,272.316712 L98.5538654,232.360173 C104.879385,232.378827 111.091115,232.341519 117.189058,232.341519 C119.222327,232.341519 121.255596,232.341519 123.270212,232.360173 L132.373288,263.437481 C133.660404,266.944404 136.756942,269.481327 140.43175,270.059596 L154.720596,272.298058 C157.126942,272.671135 159.050154,274.499212 159.570596,276.86825 L160.484635,281.084019" id="Fill-104" fill="#C5EEFB"></path>
                    <path d="M140.43175,270.059596 L137.2065,269.761135 C132.653096,269.369404 128.717135,266.459404 127.000981,262.224981 L117.189058,232.341519 C119.222327,232.341519 121.255596,232.341519 123.270212,232.360173 L132.373288,263.437481 C133.660404,266.944404 136.756942,269.481327 140.43175,270.059596" id="Fill-105" fill="#B3E9FB"></path>
                    <path d="M111.967846,196.529866 C113.385538,202.439404 111.57425,207.938558 107.919962,208.813423 C104.267538,209.690154 100.158096,205.610558 98.7422692,199.702885 C97.3264423,193.793346 99.1377308,188.294193 102.790154,187.419327 C106.444442,186.542596 110.553885,190.622193 111.967846,196.529866" id="Fill-106" fill="#FFFFFF"></path>
                    <path d="M447.501215,290.963674 L7.58446506,290.963674 C3.39625466,290.963674 -4.54747351e-13,288.690391 -4.54747351e-13,285.885683 C-4.54747351e-13,283.080976 3.39625466,280.807692 7.58446506,280.807692 L447.500326,280.807692 C451.689425,280.807692 455.084791,283.081571 455.084791,285.885683 C455.084791,288.690391 451.690314,290.963674 447.501215,290.963674 Z" id="Path" fill="#9FE3F9" fill-rule="nonzero"></path>
                    <g id="Group" transform="translate(398.466346, 205.515625)">
                        <polyline id="Fill-109" fill="#79D8F7" points="18.1875 37.4828363 13.8355577 10.4347594 0 12.1453171 5.12980769 39.0348363 18.1875 37.4828363"></polyline>
                        <path d="M17.7864423,34.9962786 L22.5786154,1.61335553 C22.7278462,0.568740146 23.7071731,-0.147567546 24.7499231,0.0259132227 C25.7665577,0.195663223 26.45675,1.14887476 26.3000577,2.16737476 L20.9855769,36.7068363 L23.0057885,36.7068363 L30.1296923,10.2444901 C30.4039038,9.22972092 31.4410577,8.61787476 32.4614231,8.87529784 C33.5041731,9.1345863 34.1328077,10.1959901 33.8604615,11.2350094 L27.2029038,36.7068363 L20.5192308,39.8145671 L17.7864423,34.9962786" id="Fill-110" fill="#235069"></path>
                        <path d="M31.8663654,34.9962786 L31.8663654,69.4312786 C31.8663654,72.4811825 29.3947308,74.9528171 26.3448269,74.9528171 L6.45423077,74.9528171 C3.40432692,74.9528171 0.932692308,72.4811825 0.932692308,69.4312786 L0.932692308,34.9962786 L31.8663654,34.9962786" id="Fill-111" fill="#C5EEFB"></path>
                        <polygon id="Fill-112" fill="#9FE3F9" points="0.932692308 43.073394 31.8663654 43.073394 31.8663654 34.9962786 0.932692308 34.9962786"></polygon>
                    </g>
                    <g id="healthcare-and-medical-(2)" transform="translate(369.500000, 248.500000) scale(-1, 1) translate(-369.500000, -248.500000) translate(351.000000, 216.000000)" fill-rule="nonzero">
                        <g id="Group">
                            <polygon id="Path" fill="#90A4AE" points="14.629839 4.07498994 21.5975252 4.07498994 21.5975252 13.254507 14.629839 13.254507"></polygon>
                            <path d="M36.1494165,36.5929074 C36.1494165,26.6926358 28.1604326,18.6573541 18.2738934,18.5745674 C8.44254527,18.492173 0.281187123,26.629336 0.0884104628,36.4532294 C-0.0669617706,44.3711972 1.56418511,52.7372334 2.68644869,60.7498893 C3.02792757,63.1877163 5.116167,65 7.57923541,65 L28.6500905,65 C31.1244064,65 33.2135614,63.1707143 33.5470624,60.7204628 C34.6337525,52.7376258 36.1494165,44.5133602 36.1494165,36.5929074 Z" id="Path" fill="#FFFFFF"></path>
                            <path d="M23.9636821,20.5084809 L12.2636821,20.5084809 C11.0009557,20.5084809 9.97730382,19.484829 9.97730382,18.2221026 L9.97730382,14.4650503 C9.97730382,13.2023239 11.0009557,12.178672 12.2636821,12.178672 L23.9635513,12.178672 C25.2262777,12.178672 26.2499296,13.2023239 26.2499296,14.4650503 L26.2499296,18.2221026 C26.2499296,19.4849598 25.2262777,20.5084809 23.9636821,20.5084809 Z" id="Path" fill="#455A64"></path>
                            <path d="M24.2961368,5.03900402 L7.46375252,5.03900402 C7.46375252,3.51732394 8.57385312,2.2228169 10.0785312,1.98975855 L22.689839,0.0370120724 C24.5611066,-0.252676056 26.2499296,1.19380282 26.2499296,3.08625755 C26.2499296,4.16470825 25.3752414,5.03900402 24.2961368,5.03900402 Z" id="Path" fill="#455A64"></path>
                            <path d="M2.9831992,26.987163 C1.21355131,29.7431891 0.156156942,32.9931891 0.0882796781,36.4532294 C-0.0670925553,44.3711972 1.56405433,52.7372334 2.68631791,60.7498893 C3.02779678,63.1877163 5.11603622,65 7.57910463,65 L28.6499598,65 C31.1242757,65 33.2134306,63.1707143 33.5469316,60.7204628 C34.6336217,52.7376258 36.1492857,44.5133602 36.1492857,36.5929074 C36.1492857,33.0614588 35.132173,29.7677767 33.3756036,26.987163 L2.9831992,26.987163 Z" id="Path" fill="#093243"></path>
                            <path d="M4.90442656,35.1810865 C6.16676056,35.1810865 6.16885312,33.2193159 4.90442656,33.2193159 C3.64209256,33.2193159 3.64,35.1810865 4.90442656,35.1810865 Z" id="Path" fill="#455A64"></path>
                            <path d="M11.1820926,31.6498994 C12.4444266,31.6498994 12.4465191,29.6881288 11.1820926,29.6881288 C9.91975855,29.6881288 9.917666,31.6498994 11.1820926,31.6498994 Z" id="Path" fill="#455A64"></path>
                            <path d="M30.9305835,32.1730382 C32.1929175,32.1730382 32.1950101,30.2112676 30.9305835,30.2112676 C29.6682495,30.2112676 29.6661569,32.1730382 30.9305835,32.1730382 Z" id="Path" fill="#455A64"></path>
                            <path d="M22.2987928,62.1227364 C23.5611268,62.1227364 23.5632193,60.1609658 22.2987928,60.1609658 C21.0364588,60.1609658 21.0343662,62.1227364 22.2987928,62.1227364 Z" id="Path" fill="#455A64"></path>
                            <path d="M29.0995976,57.806841 C30.3619316,57.806841 30.3640241,55.8450704 29.0995976,55.8450704 C27.8372636,55.8450704 27.835171,57.806841 29.0995976,57.806841 Z" id="Path" fill="#455A64"></path>
                            <path d="M8.54298793,59.7768511 C9.80532193,59.7768511 9.80741449,57.8150805 8.54298793,57.8150805 C7.28065392,57.8150805 7.27856137,59.7768511 8.54298793,59.7768511 Z" id="Path" fill="#455A64"></path>
                        </g>
                        <g id="Group" transform="translate(6.408451, 33.088531)">
                            <circle id="Oval" fill="#40C8F4" cx="11.7052314" cy="11.7706237" r="11.7052314"></circle>
                            <polygon id="Path" fill="#FFFFFF" points="17.7626559 9.67401408 13.8079879 9.67401408 13.8079879 5.73072435 9.60247485 5.73072435 9.60247485 9.67401408 5.64780684 9.67401408 5.64780684 13.8672334 9.60247485 13.8672334 9.60247485 17.8105231 13.8079879 17.8105231 13.8079879 13.8672334 17.7626559 13.8672334"></polygon>
                        </g>
                    </g>
                    <path d="M429.872288,69.4673271 C429.872288,92.3332118 411.334096,110.871404 388.466346,110.871404 C365.598596,110.871404 347.060404,92.3332118 347.060404,69.4673271 C347.060404,46.5977118 365.598596,28.0595194 388.466346,28.0595194 C411.334096,28.0595194 429.872288,46.5977118 429.872288,69.4673271" id="Fill-114" fill="#79D8F7"></path>
                    <path d="M418.929942,69.4673271 C418.929942,86.291231 405.292115,99.9290579 388.466346,99.9290579 C371.640577,99.9290579 358.00275,86.291231 358.00275,69.4673271 C358.00275,52.6415579 371.640577,39.003731 388.466346,39.003731 C405.292115,39.003731 418.929942,52.6415579 418.929942,69.4673271" id="Fill-115" fill="#C5EEFB"></path>
                    <path d="M405.618558,68.0850771 L390.611538,68.0850771 L390.611538,47.8046156 C390.611538,46.2041156 389.315096,44.9076733 387.716462,44.9076733 C386.114096,44.9076733 384.817654,46.2041156 384.817654,47.8046156 L384.817654,73.4032887 L405.618558,73.4032887 C407.088481,73.4032887 408.278596,72.2113079 408.278596,70.7432502 C408.278596,69.2751925 407.088481,68.0850771 405.618558,68.0850771" id="Fill-116" fill="#235069"></path>
                </g>
            </g>
        </g>
    </g>
</svg>